<svg width="213" height="209" viewBox="0 0 213 209" fill="none" xmlns="http://www.w3.org/2000/svg">
<path d="M104.805 19.3347C104.805 8.65643 113.461 0 124.139 0H193.517C204.195 0 212.851 8.65643 212.851 19.3347C212.851 30.0129 204.195 38.6693 193.517 38.6693H124.139C113.461 38.6693 104.805 30.0129 104.805 19.3347Z" fill="#C9C9C9"/>
<path d="M0.167969 188.798C0.167969 178.119 8.82439 169.463 19.5026 169.463H66.1333C76.8116 169.463 85.468 178.119 85.468 188.798C85.468 199.476 76.8116 208.132 66.1333 208.132H19.5026C8.82439 208.132 0.167969 199.476 0.167969 188.798Z" fill="#C9C9C9"/>
<path d="M120.408 0H61.6457C27.6797 0 0.131736 27.5101 0.0850082 61.4761C0.038111 95.5652 27.7025 123.202 61.7915 123.121L150.766 122.911C163.609 122.88 174.05 133.259 174.097 146.102C174.143 158.99 163.709 169.463 150.821 169.463H71.1462C51.4498 169.463 44.3649 195.471 61.34 205.461C64.3121 207.21 67.6978 208.132 71.1462 208.132H150.628C184.581 208.132 212.091 180.583 212.044 146.631C211.998 112.745 184.514 85.3 150.628 85.3H61.589C48.7137 85.3 38.2756 74.8635 38.2737 61.9881C38.2718 49.1101 48.711 38.6693 61.589 38.6693H120.408C141.353 38.6693 147.347 10.0151 128.157 1.62068C125.713 0.551792 123.075 0 120.408 0Z" fill="white"/>
</svg>
