<svg width="160" height="47" viewBox="0 0 160 47" xmlns="http://www.w3.org/2000/svg"><title>white-logo</title><g fill="#FFFFFE" fill-rule="evenodd"><path d="M159.53 17.045c.231.829-.622 1.827-.84 2.725.332.763.081 1.154-.477 2.067-1.479 2.416-2.093 5.563-4.126 8.292.078-1.672 1.048-3.426 2.108-4.916-1.803 1.277-2.761 3.662-2.44 5.365.258.08.066-.31.332-.45.211.066-.008.57.305.217.125.167-.27.515-.387.527-.23.94.308 1.63.653 2.427.055.12-.172.24-.144.356.148.592 1.051 1.204 1.904 1.83.406-.12.872.14 1.318.26-1.267.635-2.522 1.335-4.013.557-.293-.108.075-.321-.003-.464-1.306-.794-1.342-1.784-2.104-2.663.266-.252-.164-.565.234-.635-.285-1.22-.145-2.504-.262-3.75.724-1.046.751-1.978 1.142-2.973.078-.263-.281-.035-.25-.291 1.013-2.465 1.549-4.753 2.526-7.377-.617 0-.985.375-1.533.507-.086.019-.364-.178-.492-.124-.986.406-1.522 1.85-2.538 2.19.207-.67 1.028-1.118 1.454-1.822-.915.147-1.626 1.594-2.482 2.113.515-1.34 1.845-2.373 2.838-3.697-.25-.155-.434.093-.637.229.133-.72.907-1.061 1.29-1.595-1.736.805-2.834 2.934-4.583 4.97.286-.027.485-.604.74-.848.336 1.138-1.858 2.315-1.866 3.484.465-.19.493-1.192 1.11-1.037-.383.457-.555.608-.695 1.103-1.064.182-.857 1.73-1.486 2.493.086.209-.035.449.105.65-1.709 2.884-2.846 6.027-5.318 8.806-.14-.132.133-.33-.008-.465-.52-.31-.837.655-1.306.67-.324-.213-.109-.515-.12-.778-1.542.1-2-1.668-2.16-2.59.321-.387.47-.956.505-1.474 3.676-4.556 5.373-9.02 7.598-13.486-.294.139-.646-.101-.939.012.599-.616 1.127-.712 1.537-1.305.731-1.037.535-2.825 1.881-3.816.59.348 1.146.495 1.931 1.165a5.928 5.928 0 0 1-.05 1.8c.168.073.383.433.489.123.082.167-.004.357-.18.562.226.003.383-.43.594-.492.317.085-.121.287.196.368a1.66 1.66 0 0 0 .742-.38c.255.318.423.117.642.233.66-.778 1.682-1.444 2.796-1.437.246-.274.16-.584.52-.545.309.108.172.286.004.464.395.058.473-.193.52-.545.645.704 1.18.371 1.583.685.27.077.04-.28.298-.248.191.437.399.87 1.071 1.23-.364.411.083.698-.36 1.123l.454.326c-.117.286-.168.557-.136.82.21.066.34-.398.516-.546"/><path d="M158.08 23.122c.082.167-.008.357-.18.562-.329-.128.11-.372.18-.562M156.195 25.213c-1.06 1.49-2.03 3.244-2.108 4.916-.266.139-.074.53-.332.449-.321-1.703.637-4.088 2.44-5.365M142.11 16.898c.097.995-1.607 2.176-1.494 3.294.282.225.427-.414.669-.437-.548.782-.857 2.075-1.67 2.585-.77 1.936-1.861 3.848-3.598 5.683-.148.244.129.422.102.646-.403.837-.962.697-1.388 1.417-.302-.255.281-.282.125-.488-.727.623-1.37 1.812-2.065 2.652.564-.116.993-1.092 1.603-.918-.476 1.104-2.146 1.986-3.093 2.942-.07.387-.246.763-.64 1.034-.212-.236-.072-.523.136-.821-.669.588-1.404.735-2.085 1.254-.14-.132.134-.33-.007-.46-1.346.696-2.894-.148-4.251-.538-1.693-2.888-1.619-6.743 1.248-9.902.544-2.094 2.002-4.254 3.703-6.294 1.767-2.121 3-5.07 5.322-5.817 1.314.971 2.334 1.985 2.319 3.162-2.198 1.59-3.993 3.522-5.96 6.05.45.279 1.283-.658 1.784-1.475.12 1.034-2.253 1.912-1.983 3.167-.72.638-.982 1.09-1.569 1.974.227.162.302-.635.56-.287-.81 1.668-1.948 2.586-2.757 4.219.364-.124.634-.805.962-1.145-.059.917-.864 1.95-1.087 2.895.77-.407 1.459-.7 2.237-1.146 1.087-.623 1.806-1.711 2.894-2.512.786-.584 2.017-.821 2.506-1.986.235-.217.504-.197.743-.383 2.084-2.37 3.938-4.97 4.903-7.614.474-.116.564-.464 1.19-.983-.247-.271-.357.298-.603.027.105-.484.65-.681.982-1.018.516.244-.638 1.289-.52 1.812.317.143.489-.592.781-.589m-2.565 4.59c.435-.425.833-1.416.763-1.981-.266.662-.716 1.35-.763 1.982m-2.365 2.427c.184-.426 1.02-.956.602-1.29-.145.423-.622.895-.602 1.29M140.33 23.893c.067.418-.215.778-.586.956-.058-.28.434-.643.586-.956M135.802 30.05c.09.462-.418.555-.512 1.01-.301-.262.391-.68.512-1.01"/><path d="M134.836 30.733c.325.112-.136.607-.297.247.094-.116.172-.313.297-.247M125.92 5.92c1.424.028 2.757 1.708 2.855 2.749-.942.6-1.955.871-2.256 2.28-.821-1.58-.712-3.302-.598-5.028M120.92 18.404c.406.6.046 1.324.309 1.947-.138.314-.29.894-.642 1.03.246.286.383-.12.642.232-.372.68-.967 1.394-.763 1.982-2.39 3.259-5.22 7.47-6.558 11.128-.407-.155-.821-.352-1.127.109-.472-.19.035-.535-.386-.736-.411-.197-.72.248-1.084.368-.492-.701-.68-1.444-1.082-2.16.774-2.357 2.228-4.823 3.221-7.215.602-1.065 1.373-1.947 1.893-2.891.149-.275.125-.59.27-.84.61-1.065 1.45-1.932 1.87-3.016.25-.654.085-1.502 1.008-1.688 1.02.446 1.603.983 2.428 1.75m-6.343 13.358c.72-1.173 1.987-2.295 2.128-3.526-.845 1.076-1.845 2.253-2.128 3.526M120.986 11.212c-.368.17-.286.666-.685.77-.234-.584.098-1.254-.813-1.734-2.448.004-4.41 3.043-6.773 4.312-1.028.554-2.471.6-3.456 2.335.645-.237 1.016-1.27 1.822-1.216-1.236 1.935-2.926 3.956-4.58 5.435.454-1.181 1.522-1.986 2.17-3.263-1.689 1.633-3.33 3.549-4.91 5.887.39-.24.746-.674 1.114-1.038-.035.999-1.189 2.18-1.568 3.236.406.02.688-.723 1.032-1.095-.05.283-.234.968-.528.883-.81 1.676-.606 3.197-1.114 4.827.137.026.258-.058.371-.19.141.728-.895 1.277-1.079 2.098-.172 1.405-.137 3.367-1.834 4.076-.45-.151-.868-.109-1.235.259-.294-.279-.536-.275-.755-.085-1.107-.534-.853-1.285-1.639-1.87.047-.63-.207-1.211-.027-1.858-1.337-.286-2.343-1.289-3.035-2.187.09-.143.207-.093.298-.247-.653-.674-.54-1.467-1.084-2.16.169-1.088-.035-2.121-.101-3.174.105-.314-.176.189-.282-.09-.023-.24-.133-.467.212-.765-.267.127-.318-.04-.38-.271-1.134 1.35-1.173 2.53-2.4 3.897-.064.12.207.19.116.314-1.54 2.907-3.816 4.95-6.147 6.143-.293-.035.384-.101.466-.469-.524-.402-1.6-.012-1.74-.793-.278-.213-.482.073-.751-.086-.423-.91-1.127-1.772-1.24-2.732.152-1.44.313-2.884.52-4.336 1.576-2.38 2.198-5.047 4.04-7.543.55-.748 1.11-1.808 1.802-2.61 1.27-1.47 2.835-3.36 4.564-3.835 1.102.805 2.334 1.586 3.073 2.446.16.22.145.464.05.724.318.023.506-.755.896-.271.067-.19.505-.434.18-.561.138-.263.4.244.524-.082.306.496.626.34.986.713.86.882.266 1.908.606 2.96-.309.384-.45.736-.434 1.069.325.128.153-.538.407-.399.386.693-.458 1.58-.043 2.268-.18.252-.145.469-.423.732-.05.12.145.198.25.294-.723 1.065-.496 1.982-1.196 3.047.484.147.32-.643.664-.902-.12 1.924-1.211 3.998-.817 5.845.481.348.959.693 1.44 1.037.531-.097.8-1.084.9-1.533 1.84-4.606 5.411-9.166 7.401-13.857-1.24.356-2.432 1.034-3.902-.054-.067-.566-.931-1.01-.923-1.587 2.62-1.394 5.228-2.888 7.985-3.438 1.771-3.328 3.593-6.862 5.447-10.09 2.62 1.675-.266 4.206.05 6.243-.715.731-.488 1.316-.496 1.939.219.113.391-.089.641.232.259-.243.571-.011.939-.015.11 0 .246-.194.372-.19.105.004.203.217.304.22.923.02 2.42-.166 3.348.341.852.468 1.364 1.29 1.4 2.044m-15.6 7.95c.717-1.2 2.05-1.68 2.066-2.651-.657.809-1.67 1.615-2.065 2.652m-9.138 6.743c.109-.217-.079-.387-.16-.577-.274.178.202.236-.071.41.078.055.152.108.23.167m-2.045-10.324c-.93.337-1.923.287-2.717 1.487-.595.193-1.146.793-1.314 1.47-1.881 1.32-2.628 3.183-3.985 4.944.168-.086.301-.357.485-.345-.243 1.273-1.803 2.357-2.053 3.58-.063.078-.102.217.023.128.149-.364.212-.418.536-.414.027.573-.817 1.277-.649 1.83 3.805-3.072 7.407-8.263 9.674-12.68m-8.676 8.799c.163-.24.695-.36.625-.694-.196.05-.696.365-.625.694"/><path d="M106.916 22.445c-.461.763-.75 1.494-1.45 2.288-.024-.128-.044-.26-.063-.387.473-.55 1.188-1.812 1.513-1.901M87.982 9.834c-.027.337-.196.824-.508 1.01-1.643-.739-2.918.833-4.337 1.475-.105.194-.086.368-.309.58-.281.163.118-.32.2-.429-.177-.271-.239.201-.415-.07-1.279 1.266-2.69 1.657-3.934 3.14 1.318-.717 2.581-1.789 3.863-2.73-.238.941-1.622 1.468-2.354 2.094-1.614 2.45-4.285 4.894-6.103 7.669.046-.348.011-.581-.419-.534.117-.306.348-.631.325-.914-.364.744-1.854 2.237-1.197 3.046.195-.058.399-.681.72-.98-.086.76-1.209 1.836-1.631 2.85.414.043.508-.534.739-.848-.239 1.479-1.11 3.055-1.756 4.599-.203.163.399.2.196.368-.403 1.258-.958 2.543-1.545 3.832-.625-.28-.387-.693-.5-1.053-.439.348-.821 1.045-1.342.875-.054-.17-.027-.353-.082-.523-.227-.314-.336.135-.563-.178-.407-.445-.52-.937-.958-1.378.36-.778-.45-1.266-.18-1.967.078-.204.348-.371.442-.603.25-.612.406-1.297.704-1.904 1.56-3.179 2.14-6.825 3.648-10.01.098-.612-.078-1.185-.344-1.742.403-.438.946.038 1.345-.41.524.569 1.392.383 1.518 1.095.485-.194.946-.55 1.376-1.08 2.812-.894 5.365-3.437 8.157-4.463.169-.201-.149-.33.18-.558.689-.367 2.073-.79 2.917-.654.818.128 1.44-.267 2.147.395m-8.33 2.961c-.308-.263-.48.353-.746.383.305.206.496-.267.747-.383m-1.615 2.512c.191-.317.516-.329.364-.654-.086.213-.493.476-.364.654m-2.46 2.71c.493-.856 1.4-1.336 1.678-2.122-.548.256-1.592 1.754-1.678 2.122"/><path d="M85.112 12.478c-.477 1.126-2.045 1.336-2.914 2.38-.266.322-.644.98-1.145 1.243-.09.046-.36-.066-.47.008-.335.22-.754.8-1.224 1.188-.55.457-1.247.639-1.22 1.188-.43-.015-.735.728-1.11 1.037 1.408-3.1 4.27-4.331 6.417-6.522.43.318 1.11-.344 1.666-.522M80.873 16.662c-.45.48-.41 1.069-.939 1.278.184-.403.282-1.251.939-1.278"/><path d="M78.323 18.389c.008.263-.16.557-.398.859-.27-.422.09-.616.398-.86M77.608 19.364c.043.29-.153.925-.552.75-.035-.324.364-.518.552-.75M76.646 20.51c.328.127-.102.422-.2.433-.176-.073.008-.522.2-.433M68.84 15.342c.204.17.333-.147.564.178-1.165 2.206-2.542 6.736-5.33 7.88-.18.206 0 .354-.18.563-.688.453-1.376.909-2.041 1.513-1.9-.05-2.229 3.003-3.433 4.192-.306-.93.36-2.01.594-3.02-1.654 1.634-1.51 3.562-1.204 5.11 1.18.492 2.706-.348 4.039-1.227 1.204-.794 2.44-1.966 3.672-3.1.176.24 0 .534.254.758-1.705 1.788-2.026 4.204-3.555 5.942-.054.116.142.197.247.294-.712.44-1.38 1.177-2.202.94-.391.345-.766.814-1.27.465.195-.193.617-.236.593-.491-.774.209-1.869.061-2.854-.221-.536-.155-.461-.588-.84-1.068-.548-.69-1.346-1.042-.892-1.789-.5-.19-.254-.491-.65-.696a1.16 1.16 0 0 0 .349-.786c-.454-1.17.238-2.52.207-3.755.934-1.873 2.033-4.056 2.792-5.69.65-.406.532-.863 1.161-1.575.145-.201-.07-.345-.086-.52 1.197-1.443 1.948-3.045 3.152-4.28.556-1.409 2.382-1.839 3.41-3.058.536.14.989-.247 1.498-.302.289.132.008.244-.09.282.242.016.34.411.852.729 1.47.255 1.4 1.795 1.244 2.732"/><path d="M59.502 29.3c.227.17-.183.62-.367.655-.129-.179.282-.442.367-.655M56.347 21.28c.152.329-.391.77-.622 1.161-.14-.344.356-.956.622-1.161"/><path d="M5.637 18.42c.117-.11.273-.008.399-.078 1.165-1.788 2.518-3.313 3.422-4.657-1.42 1.25-2.64 3.391-3.82 4.734m12.38 9.399c-.724 1.114-1.976 2.524-2.374 3.658-.927.487-1.697 1.985-2.648 2.341-1.517 2.02-3.234 2.78-4.923 3.693-1.36-.24-2.53.716-3.899.406-.394-.181-.125-.468-.046-.723-.994-.244-1.795-.67-2.354-1.696-.4-.735-.5-2.268-.853-3.26-.157-.436-.336-1.005-.399-1.663-.097-1.038.094-1.761-.097-2.714 1.18-5.341 3.789-12.328 9.02-17.631 2.186-2.21 4.658-4.835 7.235-6.046.68-.028 1.532-.306 2.444.15.993.5 1.865 1.371 2.358 2.16-.602.438-1.283.368-1.944.438-.613.364-1.212.832-1.865.956-3.656 2.768-7.274 5.795-10.605 10.625.047 1.127-.657 1.812-1.216 2.919-.422.832-.602 1.9-.954 2.872-.661 1.847-1.224 3.674-1.369 5.334.196.105.31-.321.524-.081-.688.596 0 .975-.688 1.571.219 1.072.395 2.156.383 3.267 1.662.368 3.09-1.567 5.025-3.046.371-.283.903-.604 1.56-1.173 2.534-2.183 6.077-6.29 7.41-9.6-2.111.094-3.941 1.986-5.97 2.594-.423-.41-.783-.422-1.13-.356-1.088-.72-.4-1.711-1.201-2.474 4.25-3.7 8.837-5.264 13.334-7.397 2.042-.251 4.063-.642 6.23-.104.394.348.75.476 1.098.557.513.678 1.209 1.32.743 2.149 2.233-1.181 4.306-3.36 6.71-3.442 1.087.74 2.163 1.483 2.323 2.365-.606 1.212-1.005 2.199-2.049 3.577.035.174-.29.403.082.523-.414.832-1.13 2.105-2.045 2.775-.05.317.305-.287.47-.004-.419.469-.771 1.35-1.28 1.262-.05-.236.126-.507.349-.786-.876 1.134-2.163 1.719-2.667 2.675-.067-.12-.024-.26.07-.406-2.346 2.283-4.821 3.75-7.367 4.803.031 1.057-.05 2.137-.027 3.197 2.643-.267 5.048-2.06 7.535-3.301.923-.922 2.03-1.328 2.956-2.125 1.197-1.03 2.018-1.947 3.313-3.24.582-.585 1.207-.949 1.52-1.436.728-1.142.88-2.501 1.713-3.592.536-1.878 2.198-3.933 1.983-5.695.743-.259 1.638.438 2.53 1.135-.126.263.062.48.05.723.603-.282 1.193-.65 1.788-1.01.062.124.023.264-.07.41 2.143-1.107 4.856-2.388 7.175.345-.172.229.14.38-.102.615 2.401 1.278 1.807 3.693.016 5.184-.505 1.269-1.818 2.787-2.417 4.234-.98 1.784-2.92 2.91-3.108 4.54 1.662-1.265 2.393-3.386 3.758-5.105-.282 1.417-1.518 2.985-2.378 4.494-.239.047-.434.356-.688.306-.055.886-.712 1.049-.708 1.904.172.093.277-.228.45-.135.145-.76.907-1.53 1.098-1.967.403.492-.023.786-.371 1.456.52.03.895-.832 1.392-.952-.766 1.734-1.58 3.592-3.163 4.617-.595-.371-1.1-.17-1.616-.015-1.47-.88-.981-2.063-1.302-3.12.442-1.444 1.475-2.578 1.971-4.1.43-1.33.712-2.682 1.314-3.994.204-.452.38-.898.317-1.378.747-1.207 1.31-2.891 1.873-4.281-1.435-.437-2.46 1.719-3.723 2.373-.79 1.35-2.327 2.125-3.214 3.426-.888 1.3-1.15 2.833-2.1 4.118-.211.279.086.476.047.724-.747.317-.966.99-1.404 1.75.317.003.493-.856.857-.534-.67 1.4-1.803 3.197-2.292 5.012-.657.654-1.529-.04-2.335-.302-.888-.592-.864-1.327-1.716-1.928.148-.731.191-1.447.066-2.136 1.06-1.494 1.784-2.938 2.66-4.405-1.522 1.208-2.898 3.313-4.45 4.315.152-.185.227-.367.148-.518-.07.182-.49.422-.2.55-.117.073-.234.139-.355.2-.2.276-.403.55-.606.826-.13.073.19.32.281.255-1.779 2.543-4.235 5.19-6.859 5.69-.043-.534-1.005-.708-1.36-.52-.951-.792-1.088-.215-2.194-1.121.074-.1.148-.201.222-.298l-.836-.604c-1.267-2.063-1.115-4.347-.528-6.7.152-.31.376-.171.54-.414C23.8 22.7 27.492 19.546 30.046 16c-.036-.681-.04-1.37-.384-2.001-2.11-1.177-3.6 1.572-5.412 2.304-.821 1.319-1.85 1.319-2.706 2.419-.125-.082-.262-.248-.36-.144-.422.817.157 1.483-.828 2.388-.172.283.403-.116.23.163-.258.708-1.055 1.494-1.528 2.234.594.042.328-.504.762-.717.117-.061-.434.647-.478.806-.039.131.18.178.118.313-.441.949-1.134 1.943-1.412 2.547 1.627-.867 2.546-4.223 3.711-5.83-.11 1.259-.79 2.606-1.392 3.94-.774 1.03-1.576 2.064-1.478 2.958-.414.477-.786 1.255-1.235 1.522.246-.38.187-.713.363-1.084m0-.004c.063-.09.113-.174.164-.26a1.42 1.42 0 0 0-.164.26M36.071 15.86c-1.051-.255-2.4 1.227-3.581 1.552-2.546 2.272-4.458 4.308-6.41 7.451 3.477-2.06 7.043-4.943 9.991-9.003M16.18 29.33c.352-.843.798-.983 1.138-1.707-.574.174-1.134 1.208-1.138 1.707m-1.051.163c.394.37.782-.654.61-.825-.337.39-.302.58-.61.825m-4.501 5.489c1.748-2.23 3.856-4.053 4.895-6.813-1.6 2.137-3.96 4.482-4.895 6.813M5.089 20.417c.098-.434.814-.968.654-1.363-.345.472-.806.968-.654 1.363"/><path d="M42.739 27.787c.328.132-.157.495-.259.507-.089-.105.024-.57.259-.507M38.457 17.351c.215-.193.461-.197.754.081-.766.349-.382 1.355-1.25 1.858-.208-.588.778-1.362.496-1.939M34.789 28.495c.079.151.004.333-.149.518-.016.012-.035.02-.05.032-.29-.128.128-.368.199-.55"/><path d="M34.64 29.014a.36.36 0 0 1-.03.039c-.009-.004-.013-.004-.02-.008.015-.012.034-.02.05-.031M18.017 27.814c.04-.081.094-.17.165-.26-.051.086-.102.17-.165.26M157.044 42.31c-3.652-.355-6.907-.533-10.178-.344-1.397.08-2.806.075-4.21.07-3.714-.011-7.43-.036-11.144-.073-2.814-.03-5.621-.208-8.444-.145-4.328.097-8.667-.03-13.002-.048a189.373 189.373 0 0 0-5.572.038c-2.585.066-5.167.181-7.75.273-2.753.1-5.507.198-8.26.295-2.417.085-4.833.222-7.251.239-3.822.027-7.647-.043-11.469-.042-4.222 0-8.442.045-12.664.05-4.446.008-8.894-.002-13.34-.019-1.013-.004-2.028-.094-3.04-.094-2.25 0-4.489.25-6.747.096-.504-.034-1.013.005-1.52.012-2.587.037-5.174.082-7.762.107-.673.006-1.35-.08-2.023-.07-2.755.034-5.51.092-8.265.136-1.011.017-2.023.012-3.033.027-.45.006-.904.01-1.348.06a58.76 58.76 0 0 1-7.072.393c.058.53.098 1.037.174 1.54.078.513.183 1.025.735 1.525.647.127 1.415.402 2.175.397 1.228-.007 2.452-.187 3.674-.314 1.11-.115 2.216-.264 3.328-.38.388-.04.8.025 1.177-.044 2.865-.527 5.81-.44 8.713-.67.332-.027.673.005 1.01.013.897.018 1.796.079 2.69.05 3.258-.099 6.51-.362 9.777-.04 1.284.128 2.557.36 3.857.204.215-.026.45.025.672.058 2.347.355 4.704.412 7.072.315.841-.035 1.697-.067 2.532.015 1.644.164 3.258-.007 4.874-.13 2.34-.147 5.323-.442 8.381-.709.443-.036.921-.078 1.34.02 1.003.236 2.006.172 3.017.183 1.235.014 2.474.05 3.706.148 1.343.107 2.675.342 4.019.441 4.271.314 8.547.546 12.826.334 1.4-.07 2.797-.192 4.198-.27 1.736-.098 3.481-.308 5.212-.23 3.116.14 6.175-.231 9.26-.346 2.019-.075 4.032-.232 6.048-.335 1.908-.098 3.818-.168 5.725-.261a168.69 168.69 0 0 0 3.024-.182c1.51-.101 3.018-.214 4.528-.314.95-.062 1.9-.119 2.852-.161 1.906-.087 3.818-.111 5.715-.26 1.069-.083 2.12-.135 3.194-.078 1.01.054 2.041.119 3.031.007 1.787-.202 3.578-.26 5.378-.277.562-.005 1.126-.005 1.685-.043 1.622-.108 3-.513 4.616-.663.973-.09 1.708-.042 2.716-.207.186-.03.687-.059 1.163-.297zm-60.3 2.127l-.56.294-.936.056s-1.385-.206-.15-.413h.823l.824.063zm6.179.207l-1.045.294-1.741.056s-2.578-.207-.279-.413h1.532l1.533.063z"/><path d="M64.426 46.054h1.532l1.532.064-1.045.294-1.741.056s-2.577-.206-.278-.414M28.015 45.377l3.48-.484 3.49-.421-2.332.62-3.947.606s-5.881.61-.69-.321M73.196 45.791l3.512-.091 3.515-.027-2.387.355-3.99.16s-5.914-.054-.65-.397M43.06 45.995l-3.111.162-3.122.001 2.084-.84 3.53-.324s5.262.244.62 1.001M21.325 46.054h5.843l5.843.106-3.983.48-6.64.094s-9.827-.34-1.063-.68M60.69 45.64h.822l.824.065-.561.293-.936.056s-1.385-.206-.15-.413M30.738 45.525h.823l.823.064-.561.293-.936.056s-1.384-.207-.149-.413M14.021 46.394h.823l.824.064-.562.293-.936.056s-1.384-.206-.149-.413"/></g></svg>