<svg width="180" height="42" viewBox="0 0 180 42" fill="none" xmlns="http://www.w3.org/2000/svg">
<g clip-path="url(#clip0_18_43)">
<path d="M46.7143 0C46.7143 0 35.1057 0.17004 29.0566 6.22348V38.9733C29.0566 38.9733 35.0008 32.7158 46.1199 32.8178H56.3649V0H46.7143Z" fill="white"/>
<path d="M0 -5.83342e-05H9.09111C9.09111 -5.83342e-05 20.3851 -0.0680749 26.9237 5.95136V41.6599C26.9237 41.6599 22.9725 32.7497 12.9723 32.7497L0 32.8178V-5.83342e-05Z" fill="white"/>
<path d="M67.0994 3.3668H61.6797V0H76.5052V3.3668H71.0505V18.1263H67.0994V3.3668Z" fill="white"/>
<path d="M78.8479 12.413C78.8479 14.6915 79.8969 15.8138 82.0648 15.8138C82.6688 15.8032 83.2595 15.639 83.7781 15.3377C84.0487 15.2124 84.2885 15.0323 84.4815 14.8094C84.6745 14.5865 84.8162 14.326 84.897 14.0453H88.0789C87.0999 17.004 85.0369 18.4664 81.9249 18.4664C79.8619 18.4664 78.2185 17.8542 77.0297 16.5959C75.8409 15.3377 75.2115 13.6713 75.2115 11.5968C75.2115 9.52227 75.8409 7.92389 77.0647 6.63158C77.6845 5.98622 78.4385 5.47656 79.2765 5.13648C80.1145 4.79639 81.0173 4.63366 81.9249 4.65911C84.0229 4.65911 85.6663 5.4753 86.7852 7.03968C87.9041 8.60405 88.2887 10.2364 88.2887 12.413H78.8479ZM84.6523 10.1684C84.3725 8.29797 83.4285 7.37976 81.82 7.37976C81.0371 7.35599 80.2742 7.62357 79.6871 8.12793C79.409 8.39259 79.1908 8.71075 79.0463 9.0621C78.9018 9.41344 78.8342 9.79024 78.8479 10.1684H84.6523Z" fill="white"/>
<path d="M90.8412 9.08017C90.8412 6.12147 92.9042 4.65912 96.9952 4.65912C101.086 4.65912 102.765 5.91742 102.765 8.40001V15.2016C102.765 16.698 102.904 17.6842 103.219 18.1263H99.5827C99.4232 17.7234 99.3289 17.299 99.3029 16.868C98.254 17.9223 96.7854 18.4664 94.8972 18.4664C93.5685 18.4664 92.5196 18.1603 91.7153 17.5482C91.2844 17.1744 90.9446 16.7117 90.7208 16.194C90.497 15.6763 90.3948 15.1165 90.4216 14.5555C90.3883 13.9838 90.4981 13.4128 90.7417 12.8915C90.9853 12.3702 91.3555 11.9142 91.8202 11.5628C92.4846 11.0866 93.4986 10.7806 94.8972 10.5765L97.8344 10.1344C98.7085 9.89636 99.1281 9.48827 99.1281 8.80811C99.1281 8.12794 98.3589 7.03969 96.8204 7.03969C95.2819 7.03969 94.5826 7.71985 94.4427 9.08017H90.8412ZM99.1281 11.6988C98.7257 12.0025 98.238 12.1804 97.7295 12.2089L96.156 12.481C94.7574 12.753 94.0231 13.3992 94.0231 14.3854C94.0231 15.3717 94.7574 16.0858 96.2259 16.0858C97.6945 16.0858 99.1281 15.0996 99.1281 13.0591V11.6988Z" fill="white"/>
<path d="M114.933 9.62428C114.688 8.12793 113.814 7.37975 112.275 7.37975C111.779 7.37003 111.291 7.49548 110.864 7.74189C110.438 7.9883 110.091 8.34585 109.863 8.77408C109.403 9.67069 109.174 10.663 109.198 11.6648C109.164 12.631 109.38 13.5902 109.828 14.4534C110.048 14.8779 110.39 15.2317 110.811 15.4729C111.233 15.7141 111.717 15.8324 112.205 15.8138C113.849 15.8138 114.793 14.8955 115.038 13.0931H118.534C118.289 14.8275 117.625 16.1538 116.506 17.0721C115.387 17.9903 113.954 18.4664 112.205 18.4664C110.457 18.4664 108.639 17.8542 107.415 16.5959C106.191 15.3376 105.597 13.7393 105.597 11.7668C105.597 9.79432 106.191 7.95789 107.345 6.66558C108.499 5.37327 110.212 4.6591 112.275 4.6591C113.779 4.61649 115.258 5.03271 116.506 5.84939C117.131 6.26944 117.637 6.835 117.979 7.49441C118.321 8.15382 118.488 8.88607 118.464 9.62428H114.933Z" fill="white"/>
<path d="M121.017 0H124.618V6.83563H124.688C125.597 5.37328 126.856 4.65911 128.534 4.65911C130.213 4.65911 131.541 5.13522 132.311 6.08745C133.08 7.03968 133.325 8.26397 133.325 10.0664V18.1263H129.723V10.7126C129.723 8.57004 128.954 7.48178 127.415 7.48178C125.877 7.48178 124.618 8.74008 124.618 11.2567V18.1263H121.017V0Z" fill="white"/>
<path d="M66.8546 25.2H60.6307V21.4591H77.6241V25.2H71.3652V41.5919H66.8546V25.2Z" fill="white"/>
<path d="M79.5472 21.4591H83.6382V29.0429H83.7082C84.7571 27.4445 86.2257 26.6283 88.1139 26.6283C90.002 26.6283 91.5755 27.1725 92.4496 28.2267C93.3238 29.281 93.6035 30.6413 93.6035 32.6138V41.5919H89.4775V33.3619C89.4775 30.9814 88.6034 29.7571 86.8201 29.7571C85.0369 29.7571 83.6382 31.1514 83.6382 33.9401V41.5919H79.5472V21.4591Z" fill="white"/>
<path d="M96.5756 31.5255C96.5756 28.2607 98.9183 26.6283 103.604 26.6283C108.009 26.6283 110.177 28.0227 110.177 30.7773V38.3611C110.177 39.9935 110.387 41.0818 110.737 41.5919H106.541C106.366 41.1447 106.26 40.6749 106.226 40.1976C105.037 41.3878 103.359 42 101.191 42C99.6526 42 98.4637 41.6259 97.5546 40.9457C96.6455 40.2656 96.0861 39.0753 96.0861 37.6469C96.0861 36.2186 96.6105 35.0283 97.6595 34.3142C98.7085 33.6 99.5826 33.4299 101.191 33.1919L104.583 32.7158C105.562 32.4777 106.051 31.9676 106.051 31.2534C106.051 29.9271 105.177 29.281 103.394 29.281C101.611 29.281 100.841 30.0291 100.667 31.5255H96.5756ZM106.051 34.4502C105.772 34.7223 105.212 34.8923 104.443 35.0283L102.625 35.3344C101.016 35.6405 100.212 36.3546 100.212 37.4429C100.212 38.5312 101.051 39.3474 102.73 39.3474C104.932 39.3474 106.051 38.2251 106.051 35.9806V34.4502Z" fill="white"/>
<path d="M117.625 24.7579H113.464V21.4591H117.625V24.7579ZM113.464 27.0364H117.625V41.5919H113.464V27.0364Z" fill="white"/>
<path d="M124.653 21.4591H120.492V41.6089H124.653V21.4591Z" fill="white"/>
<path d="M127.276 31.5255C127.276 28.2607 129.618 26.6283 134.339 26.6283C139.059 26.6283 140.912 28.0227 140.912 30.7773V38.3611C140.912 39.9935 141.087 41.0818 141.437 41.5919H137.276C137.101 41.1447 136.995 40.6749 136.961 40.1976C135.772 41.3878 134.059 42 131.891 42C130.388 42 129.164 41.6259 128.29 40.9457C127.415 40.2656 126.821 39.0753 126.821 37.6469C126.821 36.2186 127.346 35.0283 128.395 34.3142C129.443 33.6 130.318 33.4299 131.891 33.1919L135.283 32.7158C136.262 32.4777 136.786 31.9676 136.786 31.2534C136.786 29.9271 135.877 29.281 134.094 29.281C132.311 29.281 131.541 30.0291 131.367 31.5255H127.276ZM136.786 34.4502C136.472 34.7223 135.947 34.8923 135.178 35.0283L133.36 35.3344C131.751 35.6405 130.947 36.3546 130.947 37.4429C130.947 38.5312 131.786 39.3474 133.43 39.3474C135.667 39.3474 136.786 38.2251 136.786 35.9806V34.4502Z" fill="white"/>
<path d="M143.22 27.0364H147.171V29.0429H147.241C148.255 27.4445 149.759 26.6283 151.822 26.6283C153.885 26.6283 155.283 27.1725 156.122 28.2267C156.962 29.281 157.311 30.6413 157.311 32.6138V41.5919H153.185V33.3619C153.185 30.9814 152.311 29.7571 150.528 29.7571C148.745 29.7571 147.346 31.1514 147.346 33.9401V41.5919H143.22V27.0364Z" fill="white"/>
<path d="M170.423 39.7215C169.479 41.2178 167.941 42 165.843 42C164.859 42.0348 163.881 41.8326 162.996 41.4113C162.112 40.9901 161.348 40.3629 160.773 39.5854C159.689 38.1571 159.129 36.3547 159.129 34.1781C159.129 32.0016 159.689 30.3012 160.773 28.9409C161.355 28.194 162.113 27.5942 162.983 27.1917C163.853 26.7893 164.81 26.5961 165.773 26.6283C167.801 26.6283 169.304 27.3425 170.284 28.7708V21.4591H174.375V41.5919H170.423V39.7215ZM166.857 29.6551C164.444 29.6551 163.255 31.1854 163.255 34.3142C163.221 35.4201 163.499 36.514 164.06 37.4769C164.336 37.9577 164.743 38.3549 165.237 38.6249C165.73 38.8949 166.291 39.0272 166.857 39.0073C169.235 39.0073 170.423 37.4429 170.423 34.2802C170.423 31.1174 169.235 29.6551 166.857 29.6551Z" fill="white"/>
<path d="M140.493 0H153.22V3.3668H144.479V7.5498H152.031V10.6445H144.479V18.1263H140.493V0Z" fill="white"/>
<path d="M161.472 4.65912C163.535 4.65912 165.214 5.30527 166.437 6.56357C167.661 7.82187 168.29 9.52228 168.29 11.5968C168.29 13.6713 167.661 15.3717 166.437 16.596C165.214 17.8203 163.57 18.4664 161.472 18.4664C159.374 18.4664 157.766 17.8543 156.542 16.596C155.318 15.3377 154.724 13.6713 154.724 11.5968C154.724 9.52228 155.318 7.85588 156.542 6.56357C157.766 5.27126 159.409 4.65912 161.472 4.65912ZM161.472 15.8138C163.605 15.8138 164.654 14.4194 164.654 11.5968C164.654 8.7741 163.605 7.37977 161.472 7.37977C159.339 7.37977 158.325 8.7741 158.325 11.5968C158.325 14.4194 159.374 15.8138 161.472 15.8138Z" fill="white"/>
<path d="M170.598 5.03321H174.025V7.44779C174.37 6.62321 174.968 5.92243 175.738 5.44131C176.475 4.93615 177.354 4.66313 178.256 4.65912C178.519 4.64856 178.782 4.69502 179.025 4.79516V8.12795C178.611 8.04783 178.188 8.01361 177.766 8.02592C175.389 8.02592 174.2 9.42026 174.2 12.2089V18.1263H170.598V5.03321Z" fill="white"/>
</g>
<defs>
<clipPath id="clip0_18_43">
<rect width="179.025" height="42" fill="white"/>
</clipPath>
</defs>
</svg>
